<?xml version="1.0" encoding="UTF-8"?>
<svg xmlns="http://www.w3.org/2000/svg" style="stroke-dasharray:none; shape-rendering:auto; font-family:'Arial'; text-rendering:auto; fill-opacity:1; color-interpolation:auto; color-rendering:auto; font-size:12; fill:black; stroke:black; image-rendering:auto; stroke-miterlimit:10; stroke-linecap:square; stroke-linejoin:miter; font-style:normal; stroke-width:1; stroke-dashoffset:0; font-weight:normal; stroke-opacity:1;" contentScriptType="text/ecmascript" preserveAspectRatio="xMidYMid meet" zoomAndPan="magnify" version="1.0" contentStyleType="text/css" xml:xlink="http://www.w3.org/1999/xlink" width="841" height="458"><rect x="10" y="10" width="831" height="441" ry="0" rx="0" style="stroke:#000000; fill:#FFFFFF" /><rect x="40" y="230" width="801" height="221" ry="0" rx="0" style="stroke:#000000; fill:#94C9C9" /><g componentSequence="3"><text x="-340" y="47" transform="rotate(270)" text-anchor="middle" style="font-weight:bold;font-size:10px;stroke:none; fill:#434343"><tspan dy="14" x="-340">Solicitante</tspan></text></g><rect x="40" y="10" width="801" height="220" ry="0" rx="0" style="stroke:#000000; fill:#E4CAFF" /><g componentSequence="2"><text x="-120" y="47" transform="rotate(270)" text-anchor="middle" style="font-weight:bold;font-size:10px;stroke:none; fill:#434343"><tspan dy="14" x="-120">HelpDesk</tspan></text></g><g componentSequence="1"><text x="-230" y="17" transform="rotate(270)" text-anchor="middle" style="font-weight:bold;font-size:10px;stroke:none; fill:#434343"><tspan dy="14" x="-230">Registro de Chamado</tspan></text></g><g sequence="4"><ellipse cx="137" cy="104" rx="17" ry="17" stroke-width="1" style="fill:url(#linearGradient66FF6696FF96B6FFB6_396211045);" stroke="336633" /></g><g sequence="9"><rect x="407" y="250" width="106" height="70" ry="5" rx="5" style="fill:url(#linearGradientF8FBFEEDF5FCDEEDFAD4E7F8E2E5E9_425353190);" stroke="191970" /></g><g componentSequence="9"><text x="460" y="274" text-anchor="middle" style="font-weight:bold;font-size:10px;stroke:none; fill:#333399"><tspan dy="14" x="460">Valida a Solução</tspan></text></g><g sequence="15"><rect x="230" y="70" width="106" height="70" ry="5" rx="5" style="fill:url(#linearGradientF8FBFEEDF5FCDEEDFAD4E7F8E2E5E9_493213717);" stroke="191970" /></g><g componentSequence="15"><text x="283" y="85" text-anchor="middle" style="font-weight:bold;font-size:10px;stroke:none; fill:#333399"><tspan dy="14" x="283">Analisa o</tspan><tspan dy="14" x="283">Chamado</tspan></text></g><g sequence="21"><polygon points=" 430 90 460 60 490 90 460 120 430 90" style="fill:url(#linearGradientFAFBFCFFFFCC_1483167197);" stroke="000000" /></g><g componentSequence="21"><text x="460" y="123" text-anchor="middle" style="font-weight:bold;font-size:10px;stroke:none; fill:#333399"><tspan dy="14" x="460">Check</tspan></text></g><g sequence="30"><polygon points=" 430 400 460 370 490 400 460 430 430 400" style="fill:url(#linearGradientFAFBFCFFFFCC_572244783);" stroke="000000" /></g><g componentSequence="30"><text x="460" y="433" text-anchor="middle" style="font-weight:bold;font-size:10px;stroke:none; fill:#333399"><tspan dy="14" x="460">Check</tspan></text></g><g sequence="40"><ellipse cx="807" cy="284" rx="17" ry="17" stroke-width="3" style="fill:url(#linearGradientFF6666FF9696FFB6B6_1769278949);" stroke="993333" /></g><rect x="110" y="20" width="105" height="55" ry="5" rx="5" style="stroke:none; fill:#FFFFE0" /><g componentSequence="7"><text x="120" y="33" text-anchor="left" style="font-weight:bold;font-size:10px;stroke:none; fill:#000000"><tspan dy="14" x="120">Start</tspan></text></g><path style="fill:none; stroke-width:1; stroke:#000000;" d="M130.0 20.0 L110.0 20.0 L110.0 75.0 L130.0 75.0" /><g sequence="46"><ellipse cx="677" cy="284" rx="17" ry="17" stroke-width="3" style="fill:url(#linearGradientFF6666FF9696FFB6B6_1524876718);" stroke="993333" /></g><g componentSequence="17"><text x="393" y="104" style="font-size:10px;font-weight:none;stroke:none; fill:#333399" text-anchor="left" /></g><g componentSequence="18"><text x="470" y="199" style="font-size:10px;font-weight:none;stroke:none; fill:#333399" text-anchor="left" /></g><g componentSequence="29"><text x="202" y="104" style="font-size:10px;font-weight:none;stroke:none; fill:#333399" text-anchor="left" /></g><g componentSequence="31"><text x="596" y="284" style="font-size:10px;font-weight:none;stroke:none; fill:#333399" text-anchor="left" /></g><g componentSequence="32"><text x="292" y="350" style="font-size:10px;font-weight:none;stroke:none; fill:#333399" text-anchor="left" /></g><g componentSequence="34"><text x="393" y="104" style="font-size:10px;font-weight:none;stroke:none; fill:#333399" text-anchor="left" /></g><g componentSequence="44"><text x="714" y="413" style="font-size:10px;font-weight:none;stroke:none; fill:#333399" text-anchor="left" /></g><g componentSequence="45"><text x="470" y="345" style="font-size:10px;font-weight:none;stroke:none; fill:#333399" text-anchor="left" /></g><g componentSequence="47"><text x="649" y="413" style="font-size:10px;font-weight:none;stroke:none; fill:#333399" text-anchor="left" /></g><g componentSequence="8"><text x="109" y="70" style="font-size:10px;font-weight:none;stroke:none; fill:#333399" text-anchor="left" /></g><path style="fill:none; stroke:#000000;stroke-width:1" d="M154.0 104.0 L229.0 104.0" /><polygon style="fill:#000000; stroke:#000000;" points=" 219 99 229 104 219 109 221 104" /><path style="fill:none; stroke:#000000;stroke-dasharray:2" d="M109.0 48.0 L99.0 48.0 L99.0 78.0 L123.0 94.0" /><path style="fill:none; stroke:#009600;stroke-width:1" d="M513.0 284.0 L660.0 284.0" /><polygon style="fill:#009600; stroke:#009600;" points=" 650 279 660 284 650 289 652 284" /><path style="fill:none; stroke:#000000;stroke-width:1" d="M460.0 320.0 L460.0 369.0" /><polygon style="fill:#000000; stroke:#000000;" points=" 465 359 460 369 455 359 460 361" /><path style="fill:none; stroke:#000000;stroke-width:1" d="M460.0 148.0 L460.0 249.0" /><polygon style="fill:#000000; stroke:#000000;" points=" 465 239 460 249 455 239 460 241" /><path style="fill:none; stroke:#000000;stroke-width:1" d="M336.0 104.0 L429.0 104.0" /><polygon style="fill:#000000; stroke:#000000;" points=" 419 99 429 104 419 109 421 104" /><path style="fill:none; stroke:#000000;stroke-width:1" d="M429.0 413.0 L282.0 413.0 L282.0 140.0" /><polygon style="fill:#000000; stroke:#000000;" points=" 277 150 282 140 287 150 282 148" /><path style="fill:none; stroke:#000000;stroke-width:1" d="M429.0 104.0 L336.0 104.0" /><polygon style="fill:#000000; stroke:#000000;" points=" 346 109 336 104 346 99 344 104" /><path style="fill:none; stroke:#000000;stroke-width:1" d="M490.0 413.0 L627.0 413.0 L807.0 413.0 L807.0 302.0" /><polygon style="fill:#000000; stroke:#000000;" points=" 802 312 807 302 812 312 807 310" /><path style="fill:none; stroke:#000000;stroke-width:1" d="M490.0 413.0 L677.0 413.0 L677.0 302.0" /><polygon style="fill:#000000; stroke:#000000;" points=" 672 312 677 302 682 312 677 310" /><defs><linearGradient xmlns:xlink="http://www.w3.org/1999/xlink" xlink:href="#linearGradient66FF6696FF96B6FFB6" id="linearGradient66FF6696FF96B6FFB6_396211045" x1="0" y1="87.0" x2="0" y2="122.0" gradientUnits="userSpaceOnUse" xlink:type="simple" xlink:actuate="onLoad" xlink:show="other" /><linearGradient id="linearGradient66FF6696FF96B6FFB6"><stop style="stop-color:#66FF66;stop-opacity:1;" offset="0.0" id="stop66FF66" /><stop style="stop-color:#96FF96;stop-opacity:1;" offset="0.5" id="stop96FF96" /><stop style="stop-color:#B6FFB6;stop-opacity:1;" offset="1.0" id="stopB6FFB6" /></linearGradient><linearGradient xmlns:xlink="http://www.w3.org/1999/xlink" xlink:href="#linearGradientF8FBFEEDF5FCDEEDFAD4E7F8E2E5E9" id="linearGradientF8FBFEEDF5FCDEEDFAD4E7F8E2E5E9_425353190" x1="0" y1="250.0" x2="0" y2="356.0" gradientUnits="userSpaceOnUse" xlink:type="simple" xlink:actuate="onLoad" xlink:show="other" /><linearGradient id="linearGradientF8FBFEEDF5FCDEEDFAD4E7F8E2E5E9"><stop style="stop-color:#F8FBFE;stop-opacity:1;" offset="0.0" id="stopF8FBFE" /><stop style="stop-color:#EDF5FC;stop-opacity:1;" offset="0.25" id="stopEDF5FC" /><stop style="stop-color:#DEEDFA;stop-opacity:1;" offset="0.5" id="stopDEEDFA" /><stop style="stop-color:#D4E7F8;stop-opacity:1;" offset="0.75" id="stopD4E7F8" /><stop style="stop-color:#E2E5E9;stop-opacity:1;" offset="1.0" id="stopE2E5E9" /></linearGradient><linearGradient xmlns:xlink="http://www.w3.org/1999/xlink" xlink:href="#linearGradientF8FBFEEDF5FCDEEDFAD4E7F8E2E5E9" id="linearGradientF8FBFEEDF5FCDEEDFAD4E7F8E2E5E9_493213717" x1="0" y1="70.0" x2="0" y2="176.0" gradientUnits="userSpaceOnUse" xlink:type="simple" xlink:actuate="onLoad" xlink:show="other" /><linearGradient xmlns:xlink="http://www.w3.org/1999/xlink" xlink:href="#linearGradientFAFBFCFFFFCC" id="linearGradientFAFBFCFFFFCC_1483167197" x1="0" y1="60.0" x2="0" y2="120.0" gradientUnits="userSpaceOnUse" xlink:type="simple" xlink:actuate="onLoad" xlink:show="other" /><linearGradient id="linearGradientFAFBFCFFFFCC"><stop style="stop-color:#FAFBFC;stop-opacity:1;" offset="0.0" id="stopFAFBFC" /><stop style="stop-color:#FFFFCC;stop-opacity:1;" offset="1.0" id="stopFFFFCC" /></linearGradient><linearGradient xmlns:xlink="http://www.w3.org/1999/xlink" xlink:href="#linearGradientFAFBFCFFFFCC" id="linearGradientFAFBFCFFFFCC_572244783" x1="0" y1="370.0" x2="0" y2="430.0" gradientUnits="userSpaceOnUse" xlink:type="simple" xlink:actuate="onLoad" xlink:show="other" /><linearGradient xmlns:xlink="http://www.w3.org/1999/xlink" xlink:href="#linearGradientFF6666FF9696FFB6B6" id="linearGradientFF6666FF9696FFB6B6_1769278949" x1="0" y1="267.0" x2="0" y2="302.0" gradientUnits="userSpaceOnUse" xlink:type="simple" xlink:actuate="onLoad" xlink:show="other" /><linearGradient id="linearGradientFF6666FF9696FFB6B6"><stop style="stop-color:#FF6666;stop-opacity:1;" offset="0.0" id="stopFF6666" /><stop style="stop-color:#FF9696;stop-opacity:1;" offset="0.5" id="stopFF9696" /><stop style="stop-color:#FFB6B6;stop-opacity:1;" offset="1.0" id="stopFFB6B6" /></linearGradient><linearGradient xmlns:xlink="http://www.w3.org/1999/xlink" xlink:href="#linearGradientFF6666FF9696FFB6B6" id="linearGradientFF6666FF9696FFB6B6_1524876718" x1="0" y1="267.0" x2="0" y2="302.0" gradientUnits="userSpaceOnUse" xlink:type="simple" xlink:actuate="onLoad" xlink:show="other" /></defs></svg>
